<?xml version="1.0" standalone="no"?>
<!DOCTYPE svg PUBLIC "-//W3C//DTD SVG 20010904//EN"
 "http://www.w3.org/TR/2001/REC-SVG-20010904/DTD/svg10.dtd">
<svg version="1.0" xmlns="http://www.w3.org/2000/svg"
 width="1280.000000pt" height="1280.000000pt" viewBox="0 0 1280.000000 1280.000000"
 preserveAspectRatio="xMidYMid meet">
<metadata>
Created by potrace 1.15, written by Peter Selinger 2001-2017
</metadata>
<g transform="translate(0.000000,1280.000000) scale(0.100000,-0.100000)"
fill="#000000" stroke="none">
<path d="M6155 11364 c-147 -15 -328 -36 -370 -44 -27 -5 -113 -21 -190 -35
-437 -82 -840 -218 -1258 -426 -87 -43 -186 -95 -220 -115 -172 -103 -220
-133 -317 -197 -204 -136 -453 -335 -644 -517 -75 -72 -263 -277 -372 -405
-214 -254 -485 -684 -648 -1028 -140 -294 -198 -450 -279 -747 -74 -270 -96
-370 -131 -620 -92 -641 -53 -1287 115 -1900 129 -469 303 -890 513 -1240 527
-874 1272 -1531 2208 -1948 443 -196 930 -328 1373 -372 61 -6 121 -13 135
-16 58 -13 665 -16 802 -5 605 50 1231 226 1793 506 235 117 356 188 561 332
451 317 796 646 1096 1044 215 286 351 509 504 824 312 643 456 1242 489 2025
12 265 -33 726 -100 1050 -130 624 -383 1208 -776 1790 -121 180 -209 290
-394 491 -554 604 -1262 1063 -2020 1308 -366 119 -663 180 -1095 227 -136 14
-683 27 -775 18z m654 -765 c340 -31 709 -102 885 -170 647 -250 887 -369
1191 -593 294 -216 608 -519 820 -791 288 -370 577 -948 709 -1421 94 -339
154 -819 142 -1148 -15 -394 -92 -858 -195 -1171 -111 -340 -286 -703 -474
-985 -269 -404 -551 -704 -939 -1004 -545 -420 -1284 -718 -1987 -802 -181
-21 -526 -29 -721 -15 -562 39 -1005 155 -1495 390 -497 239 -878 522 -1250
927 -401 436 -670 899 -850 1464 -21 63 -43 134 -51 156 -63 197 -120 501
-152 824 -31 303 0 769 74 1123 37 174 125 476 183 623 156 398 431 860 700
1178 418 495 985 903 1581 1139 395 156 806 253 1215 287 124 10 453 4 614
-11z"/>
<path d="M4356 8838 c-14 -20 -16 -176 -16 -1469 0 -1385 1 -1447 18 -1462 17
-15 74 -17 563 -19 l544 -3 0 -85 0 -85 -307 -3 -308 -2 0 -138 0 -137 -265
-188 -266 -188 3 -142 3 -142 1873 -3 1873 -2 -3 147 -3 147 -95 67 c-52 36
-96 71 -97 76 -2 5 34 9 84 9 112 -1 159 16 262 97 339 266 422 325 508 357
190 71 410 30 502 -93 49 -66 75 -117 105 -210 33 -101 41 -172 26 -243 -12
-56 -48 -144 -59 -144 -4 0 -28 11 -55 25 -54 27 -100 31 -173 14 -148 -34
-270 -106 -386 -228 -88 -93 -162 -210 -270 -429 l-81 -164 -4 -96 c-5 -123
17 -189 86 -260 55 -55 170 -127 239 -149 113 -35 262 8 360 103 74 72 232
285 311 419 54 92 99 229 114 347 10 82 9 107 -5 179 -9 46 -30 111 -48 146
l-31 62 20 28 c82 115 65 296 -47 527 -53 108 -87 146 -163 184 -128 63 -317
84 -423 48 -88 -31 -206 -104 -379 -234 -272 -205 -277 -208 -355 -226 -38 -9
-103 -16 -144 -16 l-75 0 -123 88 -124 88 -3 137 -3 137 -307 2 -307 3 -3 88
-3 87 544 0 c514 0 545 1 560 18 16 17 17 133 17 1463 0 1291 -2 1447 -16
1467 l-15 22 -1819 0 -1819 0 -15 -22z"/>
</g>
</svg>
